# xmcd CD database file
#
# Track frame offsets:
#	150
#	14365
#	29402
#	45895
#	58732
#	68731
#	81788
#	96675
#	107889
#	125220
#	136190
#	156111
#	169217
#	191605
#	207120
#	216571
#	235123
#	243687
#
# Disc length: 3542 seconds
#
# Revision: 0
# Processed by: cddbd v1.5.2PL0 Copyright (c) Steve Scherf et al.
# Submitted via: CDex 1.70beta2
#
DISCID=090dd412
DTITLE=Kessel, Barney - Various Artists - El Tigre - Best Plucking In Town
DYEAR=1958
DGENRE=Jazz
TTITLE0=Lullaby Of Birdland
TTITLE1=Tea For Two
TTITLE2=All For You
TTITLE3=Body and Soul
TTITLE4=El Tigre
TTITLE5=Cheeta's For Two
TTITLE6=The Cobra
TTITLE7=East Of The Sun
TTITLE8=The Blues
TTITLE9=Perdido
TTITLE10=Roulette
TTITLE11=On The Sunny Side Of The Street
TTITLE12=Up Tempo
TTITLE13=Blues For A Stripper
TTITLE14=Theme From Samson and Deliah
TTITLE15=Yes, He's Gone
TTITLE16=Have You got A Penny, Benny
TTITLE17=Walkin' Home
EXTD=YEAR: 1958
EXTT0=
EXTT1=
EXTT2=
EXTT3=
EXTT4=
EXTT5=
EXTT6=
EXTT7=
EXTT8=
EXTT9=
EXTT10=
EXTT11=
EXTT12=
EXTT13=
EXTT14=
EXTT15=
EXTT16=
EXTT17=
PLAYORDER=
